<svg width="16" height="19" viewBox="0 0 16 19" fill="none" xmlns="http://www.w3.org/2000/svg">
<g clip-path="url(#clip0_10_42)">
<path d="M15.9843 5.67521C15.9469 4.71044 15.8094 4.04717 15.6124 3.47244C15.4093 2.86238 15.0967 2.31619 14.6872 1.86214C14.2871 1.40103 13.8026 1.04272 13.2713 0.815765C12.7619 0.592273 12.1805 0.436259 11.3304 0.393722C10.4739 0.347583 10.202 0.336914 8.02967 0.336914C5.85737 0.336914 5.58546 0.347583 4.73215 0.39012C3.88201 0.432656 3.29754 0.588809 2.79122 0.812162C2.25352 1.04272 1.77222 1.39742 1.37212 1.86214C0.96579 2.31619 0.650176 2.86598 0.450064 3.46898C0.253126 4.04717 0.115648 4.70684 0.0781653 5.67161C0.0375079 6.64358 0.0281067 6.95215 0.0281067 9.41734C0.0281067 11.8825 0.0375079 12.1911 0.0749908 13.1595C0.112474 14.1242 0.250074 14.7875 0.447012 15.3622C0.650176 15.9723 0.96579 16.5185 1.37212 16.9725C1.77222 17.4337 2.25669 17.792 2.78804 18.0189C3.29754 18.2424 3.87883 18.3984 4.7291 18.441C5.58229 18.4836 5.85432 18.4942 8.02661 18.4942C10.1989 18.4942 10.4708 18.4836 11.3241 18.441C12.1743 18.3984 12.7587 18.2424 13.2651 18.0189C14.3403 17.5471 15.1905 16.5824 15.6062 15.3622C15.803 14.784 15.9406 14.1242 15.9781 13.1595C16.0156 12.1911 16.025 11.8825 16.025 9.41734C16.025 6.95215 16.0218 6.64358 15.9843 5.67521ZM14.5435 13.0885C14.5091 13.9753 14.3778 14.4541 14.2684 14.7734C13.9996 15.5644 13.4464 16.1922 12.7493 16.4973C12.468 16.6214 12.043 16.7704 11.2647 16.8093C10.4208 16.852 10.1677 16.8625 8.03284 16.8625C5.89803 16.8625 5.64175 16.852 4.80089 16.8093C4.01949 16.7704 3.59753 16.6214 3.31622 16.4973C2.96935 16.3518 2.65362 16.1212 2.39734 15.8198C2.13167 15.5253 1.9285 15.1706 1.8003 14.777C1.69091 14.4577 1.55966 13.9753 1.52535 13.0921C1.48774 12.1344 1.47846 11.8471 1.47846 9.42441C1.47846 7.00175 1.48774 6.71092 1.52535 5.75682C1.55966 4.87006 1.69091 4.39121 1.8003 4.07198C1.9285 3.6782 2.13167 3.32003 2.40052 3.02906C2.65985 2.72756 2.97241 2.49701 3.3194 2.35166C3.6007 2.22751 4.02583 2.07857 4.80406 2.03949C5.64798 1.99696 5.9012 1.98629 8.03589 1.98629C10.1739 1.98629 10.427 1.99696 11.2678 2.03949C12.0492 2.07857 12.4712 2.22751 12.7525 2.35166C13.0994 2.49701 13.4151 2.72756 13.6714 3.02906C13.9371 3.3235 14.1402 3.6782 14.2684 4.07198C14.3778 4.39121 14.5091 4.87352 14.5435 5.75682C14.581 6.71452 14.5904 7.00175 14.5904 9.42441C14.5904 11.8471 14.581 12.1308 14.5435 13.0885Z" fill="white"/>
<path d="M8.02967 4.75293C5.76055 4.75293 3.91949 6.84208 3.91949 9.41729C3.91949 11.9925 5.76055 14.0816 8.02967 14.0816C10.2989 14.0816 12.1398 11.9925 12.1398 9.41729C12.1398 6.84208 10.2989 4.75293 8.02967 4.75293ZM8.02967 12.4429C6.55758 12.4429 5.3635 11.088 5.3635 9.41729C5.3635 7.74658 6.55758 6.39164 8.02967 6.39164C9.50188 6.39164 10.6958 7.74658 10.6958 9.41729C10.6958 11.088 9.50188 12.4429 8.02967 12.4429V12.4429Z" fill="white"/>
<path d="M13.262 4.56841C13.262 5.16974 12.8324 5.65732 12.3024 5.65732C11.7725 5.65732 11.3428 5.16974 11.3428 4.56841C11.3428 3.96693 11.7725 3.47949 12.3024 3.47949C12.8324 3.47949 13.262 3.96693 13.262 4.56841V4.56841Z" fill="white"/>
</g>
<defs>
<clipPath id="clip0_10_42">
<rect width="16" height="18.1573" fill="white" transform="translate(0 0.336914)"/>
</clipPath>
</defs>
</svg>
