<svg width="14" height="17" viewBox="0 0 14 17" fill="none" xmlns="http://www.w3.org/2000/svg">
<g clip-path="url(#clip0_10_23)">
<path d="M12.6 0.47168H1.4C0.63 0.47168 0 1.18662 0 2.06044V14.7706C0 15.6444 0.63 16.3593 1.4 16.3593H12.6C13.37 16.3593 14 15.6444 14 14.7706V2.06044C14 1.18662 13.37 0.47168 12.6 0.47168ZM4.2 13.9762H2.1V6.82674H4.2V13.9762ZM3.15 5.47629C2.45 5.47629 1.89 4.84078 1.89 4.0464C1.89 3.25202 2.45 2.61651 3.15 2.61651C3.85 2.61651 4.41 3.25202 4.41 4.0464C4.41 4.84078 3.85 5.47629 3.15 5.47629ZM11.9 13.9762H9.8V9.76595C9.8 9.13047 9.31 8.57438 8.75 8.57438C8.19 8.57438 7.7 9.13047 7.7 9.76595V13.9762H5.6V6.82674H7.7V7.77999C8.05 7.14449 8.82 6.66786 9.45 6.66786C10.78 6.66786 11.9 7.93887 11.9 9.4482V13.9762Z" fill="white"/>
</g>
<defs>
<clipPath id="clip0_10_23">
<rect width="14" height="15.8876" fill="white" transform="translate(0 0.47168)"/>
</clipPath>
</defs>
</svg>
