<svg width="20" height="23" viewBox="0 0 20 23" fill="none" xmlns="http://www.w3.org/2000/svg">
<g clip-path="url(#clip0_10_4)">
<path d="M20 4.37844C19.2562 4.74868 18.4637 4.99409 17.6375 5.11325C18.4875 4.53732 19.1363 3.63229 19.4413 2.54144C18.6488 3.07764 17.7737 3.45639 16.8412 3.66776C16.0887 2.75847 15.0162 2.19531 13.8462 2.19531C11.5762 2.19531 9.74875 4.28624 9.74875 6.84954C9.74875 7.21836 9.77625 7.57299 9.84375 7.91061C6.435 7.72194 3.41875 5.86791 1.3925 3.0436C1.03875 3.7401 0.83125 4.53732 0.83125 5.39554C0.83125 7.007 1.5625 8.43547 2.6525 9.26247C1.99375 9.24829 1.3475 9.03125 0.8 8.68938C0.8 8.70357 0.8 8.72201 0.8 8.74045C0.8 11.0016 2.22125 12.8797 4.085 13.3124C3.75125 13.416 3.3875 13.4656 3.01 13.4656C2.7475 13.4656 2.4825 13.4486 2.23375 13.3862C2.765 15.2289 4.2725 16.5836 6.065 16.6275C4.67 17.8659 2.89875 18.6121 0.98125 18.6121C0.645 18.6121 0.3225 18.595 0 18.5482C1.81625 19.8774 3.96875 20.6363 6.29 20.6363C13.835 20.6363 17.96 13.5436 17.96 7.39568C17.96 7.18999 17.9537 6.99139 17.945 6.79422C18.7587 6.13885 19.4425 5.32035 20 4.37844Z" fill="white"/>
</g>
<defs>
<clipPath id="clip0_10_4">
<rect width="20" height="22.6966" fill="white" transform="translate(0 0.0673828)"/>
</clipPath>
</defs>
</svg>
